<?xml version="1.0" encoding="utf-8"?>
<!-- Generator: Adobe Illustrator 18.0.0, SVG Export Plug-In . SVG Version: 6.00 Build 0)  -->
<!DOCTYPE svg PUBLIC "-//W3C//DTD SVG 1.1//EN" "http://www.w3.org/Graphics/SVG/1.1/DTD/svg11.dtd">
<svg version="1.1" id="Layer_1" xmlns="http://www.w3.org/2000/svg" xmlns:xlink="http://www.w3.org/1999/xlink" x="0px" y="0px"
	 viewBox="0 0 60.6 37.8" enable-background="new 0 0 60.6 37.8" xml:space="preserve">
<g>
	<rect x="7" y="6.7" fill="#676767" width="47.6" height="25"/>
	<g>
		<g id="OPT_FOR_1_">
			<path fill="#FFFFFF" d="M13.9,10.7c0,0.4-0.1,0.7-0.2,0.9c-0.1,0.3-0.3,0.5-0.6,0.6c-0.2,0.1-0.5,0.2-0.8,0.2
				c-0.3,0-0.6-0.1-0.8-0.2c-0.2-0.1-0.4-0.3-0.6-0.6c-0.1-0.3-0.2-0.6-0.2-0.9c0-0.4,0.1-0.7,0.2-0.9c0.1-0.3,0.3-0.5,0.6-0.6
				C11.7,9.1,12,9,12.3,9c0.3,0,0.6,0.1,0.8,0.2c0.2,0.1,0.4,0.3,0.5,0.6C13.8,10.1,13.9,10.4,13.9,10.7z M13.4,10.8
				c0-0.4-0.1-0.8-0.3-1c-0.2-0.2-0.5-0.4-0.9-0.4c-0.2,0-0.4,0.1-0.6,0.2c-0.2,0.1-0.3,0.3-0.4,0.5c-0.1,0.2-0.2,0.5-0.2,0.7
				c0,0.3,0,0.5,0.1,0.7c0.1,0.2,0.2,0.4,0.4,0.5c0.2,0.1,0.4,0.2,0.6,0.2c0.4,0,0.7-0.1,0.9-0.4C13.3,11.5,13.4,11.2,13.4,10.8z"/>
			<path fill="#FFFFFF" d="M16.7,11.2c0,0.4-0.1,0.7-0.3,1c-0.2,0.2-0.5,0.4-0.8,0.4c-0.3,0-0.6-0.1-0.7-0.4h0v1.4h-0.4V10h0.4v0.4
				h0c0.2-0.3,0.5-0.5,0.8-0.5c0.3,0,0.5,0.1,0.7,0.3C16.6,10.5,16.7,10.8,16.7,11.2z M16.3,11.1c0-0.3-0.1-0.5-0.2-0.6
				c-0.1-0.2-0.3-0.2-0.5-0.2c-0.2,0-0.4,0.1-0.5,0.2c-0.1,0.2-0.2,0.3-0.2,0.6v0.3c0,0.2,0.1,0.4,0.2,0.5c0.1,0.1,0.3,0.2,0.5,0.2
				c0.2,0,0.4-0.1,0.5-0.3C16.2,11.7,16.3,11.5,16.3,11.1z"/>
			<path fill="#FFFFFF" d="M18.4,12.4c-0.1,0.1-0.2,0.1-0.4,0.1c-0.4,0-0.6-0.2-0.6-0.7v-1.4H17V10h0.4V9.4l0.4-0.1V10h0.6v0.3h-0.6
				v1.4c0,0.2,0,0.3,0.1,0.3c0.1,0.1,0.1,0.1,0.3,0.1c0.1,0,0.2,0,0.2-0.1V12.4z"/>
			<path fill="#FFFFFF" d="M19.3,9.2c0,0.1,0,0.1-0.1,0.2c-0.1,0-0.1,0.1-0.2,0.1c-0.1,0-0.1,0-0.2-0.1c0,0-0.1-0.1-0.1-0.2
				c0-0.1,0-0.1,0.1-0.2c0,0,0.1-0.1,0.2-0.1c0.1,0,0.1,0,0.2,0.1C19.3,9,19.3,9.1,19.3,9.2z M19.3,12.4h-0.4V10h0.4V12.4z"/>
			<path fill="#FFFFFF" d="M23.5,12.4h-0.4V11c0-0.3,0-0.5-0.1-0.6c-0.1-0.1-0.2-0.2-0.4-0.2c-0.2,0-0.3,0.1-0.4,0.2
				C22,10.7,22,10.8,22,11.1v1.4h-0.4V11c0-0.5-0.2-0.7-0.5-0.7c-0.2,0-0.3,0.1-0.4,0.2c-0.1,0.1-0.2,0.3-0.2,0.5v1.4h-0.4V10h0.4
				v0.4h0c0.2-0.3,0.4-0.4,0.7-0.4c0.2,0,0.3,0,0.4,0.1c0.1,0.1,0.2,0.2,0.3,0.4c0.2-0.3,0.4-0.5,0.8-0.5c0.5,0,0.8,0.3,0.8,1V12.4z
				"/>
			<path fill="#FFFFFF" d="M24.6,9.2c0,0.1,0,0.1-0.1,0.2c-0.1,0-0.1,0.1-0.2,0.1c-0.1,0-0.1,0-0.2-0.1c0,0-0.1-0.1-0.1-0.2
				c0-0.1,0-0.1,0.1-0.2c0,0,0.1-0.1,0.2-0.1c0.1,0,0.1,0,0.2,0.1C24.6,9,24.6,9.1,24.6,9.2z M24.6,12.4h-0.4V10h0.4V12.4z"/>
			<path fill="#FFFFFF" d="M27,10.1l-1.4,2H27v0.3h-2v-0.1l1.4-2h-1.3V10H27V10.1z"/>
			<path fill="#FFFFFF" d="M29.4,11.3h-1.7c0,0.3,0.1,0.5,0.2,0.6c0.1,0.1,0.3,0.2,0.6,0.2c0.3,0,0.5-0.1,0.7-0.3v0.4
				c-0.2,0.2-0.5,0.2-0.8,0.2c-0.3,0-0.6-0.1-0.8-0.3c-0.2-0.2-0.3-0.5-0.3-0.9c0-0.2,0-0.5,0.1-0.7c0.1-0.2,0.2-0.3,0.4-0.5
				c0.2-0.1,0.4-0.2,0.6-0.2c0.3,0,0.6,0.1,0.7,0.3c0.2,0.2,0.3,0.5,0.3,0.8V11.3z M29,11c0-0.2-0.1-0.4-0.2-0.5
				c-0.1-0.1-0.3-0.2-0.4-0.2c-0.2,0-0.3,0.1-0.5,0.2c-0.1,0.1-0.2,0.3-0.2,0.5H29z"/>
			<path fill="#FFFFFF" d="M32,12.4h-0.4V12h0c-0.2,0.3-0.5,0.5-0.8,0.5c-0.3,0-0.5-0.1-0.7-0.3c-0.2-0.2-0.3-0.5-0.3-0.9
				c0-0.4,0.1-0.7,0.3-1c0.2-0.2,0.5-0.4,0.8-0.4c0.3,0,0.6,0.1,0.7,0.4h0V8.9H32V12.4z M31.6,11.3V11c0-0.2-0.1-0.4-0.2-0.5
				c-0.1-0.1-0.3-0.2-0.5-0.2c-0.2,0-0.4,0.1-0.6,0.3c-0.1,0.2-0.2,0.4-0.2,0.7c0,0.3,0.1,0.5,0.2,0.7c0.1,0.2,0.3,0.2,0.5,0.2
				c0.2,0,0.4-0.1,0.5-0.2C31.6,11.8,31.6,11.6,31.6,11.3z"/>
			<path fill="#FFFFFF" d="M35.1,9.2c-0.1,0-0.2-0.1-0.3-0.1c-0.3,0-0.4,0.2-0.4,0.5V10H35v0.3h-0.6v2.1h-0.4v-2.1h-0.4V10h0.4V9.6
				c0-0.2,0.1-0.4,0.2-0.6c0.1-0.2,0.3-0.2,0.5-0.2c0.1,0,0.2,0,0.3,0V9.2z"/>
			<path fill="#FFFFFF" d="M37.6,11.2c0,0.4-0.1,0.7-0.3,0.9c-0.2,0.2-0.5,0.3-0.9,0.3c-0.4,0-0.6-0.1-0.8-0.3
				c-0.2-0.2-0.3-0.5-0.3-0.9c0-0.4,0.1-0.7,0.3-0.9c0.2-0.2,0.5-0.3,0.9-0.3c0.4,0,0.6,0.1,0.8,0.3C37.5,10.5,37.6,10.8,37.6,11.2z
				 M37.2,11.2c0-0.3-0.1-0.5-0.2-0.7c-0.1-0.2-0.3-0.2-0.6-0.2c-0.2,0-0.4,0.1-0.6,0.2c-0.1,0.2-0.2,0.4-0.2,0.7
				c0,0.3,0.1,0.5,0.2,0.7c0.1,0.2,0.3,0.2,0.6,0.2c0.2,0,0.4-0.1,0.6-0.2C37.1,11.8,37.2,11.5,37.2,11.2z"/>
			<path fill="#FFFFFF" d="M39.5,10.4c-0.1-0.1-0.2-0.1-0.3-0.1c-0.2,0-0.3,0.1-0.4,0.2c-0.1,0.2-0.2,0.4-0.2,0.6v1.2h-0.4V10h0.4
				v0.5h0c0.1-0.2,0.1-0.3,0.2-0.4C39,10,39.1,10,39.2,10c0.1,0,0.2,0,0.2,0V10.4z"/>
		</g>
		<g id="Lync_1_">
			<g>
				<path fill="#FFFFFF" d="M32.7,25.8h-4.2v-8.2h1v7.3h3.3V25.8z"/>
				<path fill="#FFFFFF" d="M37.7,19.9L35,26.7c-0.5,1.2-1.2,1.8-2,1.8c-0.2,0-0.4,0-0.6-0.1v-0.8c0.2,0.1,0.4,0.1,0.5,0.1
					c0.5,0,0.8-0.3,1.1-0.8l0.5-1.1l-2.3-5.8h1l1.6,4.5l0.1,0.4h0c0-0.1,0.1-0.2,0.1-0.4l1.7-4.5H37.7z"/>
				<path fill="#FFFFFF" d="M43.3,25.8h-0.9v-3.3c0-1.2-0.5-1.9-1.4-1.9c-0.5,0-0.8,0.2-1.2,0.5c-0.3,0.3-0.5,0.8-0.5,1.3v3.3h-0.9
					v-5.8h0.9v1h0c0.4-0.7,1.1-1.1,1.9-1.1c0.6,0,1.1,0.2,1.5,0.6c0.3,0.4,0.5,1,0.5,1.8V25.8z"/>
				<path fill="#FFFFFF" d="M48.7,25.5c-0.5,0.3-1,0.4-1.6,0.4c-0.5,0-1-0.1-1.4-0.4c-0.4-0.2-0.8-0.6-1-1c-0.2-0.4-0.4-1-0.4-1.5
					c0-1,0.3-1.7,0.8-2.3c0.6-0.6,1.3-0.9,2.2-0.9c0.5,0,1,0.1,1.4,0.3v1c-0.4-0.3-0.9-0.5-1.4-0.5c-0.6,0-1.1,0.2-1.5,0.6
					c-0.4,0.4-0.6,1-0.6,1.7c0,0.7,0.2,1.2,0.5,1.6c0.4,0.4,0.8,0.6,1.4,0.6c0.5,0,1-0.2,1.4-0.5V25.5z"/>
			</g>
			<path fill-rule="evenodd" clip-rule="evenodd" fill="#FFFFFF" d="M18.9,28.5l-8.2-1.4V16.3l8.2-1.4V28.5z M14.3,18.5l-1.2,0.1
				l0,5.9l3.4,0.2v-1.1l-2.2-0.1V18.5"/>
			<g>
				<path fill="#FFFFFF" d="M20.2,18.8c-0.2,0.1-0.4,0.1-0.5,0.2v1.9c0.3-0.5,0.8-0.9,1.5-0.9h1.6c0.1,0,0.2,0,0.2,0l-1.1-1.4
					L21,17.5c-0.1-0.2-0.3-0.3-0.6-0.3c-0.4,0-0.7,0.3-0.7,0.7c0,0.1,0,0.3,0.1,0.4L20.2,18.8z"/>
				<path fill="#FFFFFF" d="M19.7,22.4v1.9c0.4,0.2,0.9,0.4,1.4,0.4h0.3l-1.5-1.9C19.8,22.6,19.7,22.5,19.7,22.4z"/>
				<path fill="#FFFFFF" d="M25.7,21.6c0-1.7-1.3-3-3-3h-0.3l1.5,1.9c0.2,0.3,0.4,0.7,0.4,1.1c0,0.9-0.7,1.6-1.6,1.6h-1.6
					c-0.1,0-0.2,0-0.2,0l1.1,1.4l0.8,1.1c0.1,0.2,0.3,0.3,0.6,0.3c0.4,0,0.7-0.3,0.7-0.7c0-0.1,0-0.3-0.1-0.4l-0.4-0.5
					C24.9,24.1,25.7,23,25.7,21.6z"/>
			</g>
		</g>
	</g>
</g>
</svg>
