<?xml version="1.0" encoding="utf-8"?>
<!-- Generator: Adobe Illustrator 18.1.1, SVG Export Plug-In . SVG Version: 6.00 Build 0)  -->
<svg version="1.1" id="Layer_1" xmlns="http://www.w3.org/2000/svg" xmlns:xlink="http://www.w3.org/1999/xlink" x="0px" y="0px"
	 viewBox="0 266.4 1224 259.2" enable-background="new 0 266.4 1224 259.2" xml:space="preserve">
<polyline fill="#D04A2B" points="1224,266.4 0,266.4 0,525.6 1224,525.6 "/>
<g>
	<g>
		<g>
			<path fill="#FFFFFF" d="M1067.3,406.6c-1.2-1.2-2.4-1.2-4.7-1.2h-8.2v17.7h2.4v-8.2h3.5l4.7,8.2h2.4l-4.7-8.2
				c3.5,0,5.9-1.2,5.9-4.7l0,0C1069.7,409,1068.5,406.6,1067.3,406.6z M1061.4,413.7h-4.7v-5.9h4.7c2.4,0,4.7,0,4.7,3.5
				C1067.3,412.5,1063.8,413.7,1061.4,413.7z"/>
			<path fill="#FFFFFF" d="M1061.4,398.4c-8.2,0-15.3,7.1-15.3,15.3c0,8.2,7.1,15.3,15.3,15.3c8.2,0,15.3-7.1,15.3-15.3
				C1076.7,405.4,1069.7,398.4,1061.4,398.4z M1061.4,427.8c-7.1,0-13-5.9-13-13c0-7.1,5.9-13,13-13s13,5.9,13,13
				C1074.4,421.9,1068.5,427.8,1061.4,427.8z"/>
		</g>
	</g>
	<path fill="#FFFFFF" d="M664.4,429H708c10.6,0,20-7.1,20-20V383c0-13-10.6-20-20-20h-43.6c-10.6,0-20,7.1-20,20V409
		C644.4,421.9,653.8,429,664.4,429z M665.6,380.7c0-3.5,3.5-7.1,8.2-7.1h25.9c4.7,0,8.2,3.5,8.2,7.1v30.6c0,3.5-3.5,7.1-8.2,7.1
		h-25.9c-4.7,0-8.2-3.5-8.2-7.1V380.7z"/>
	<path fill="#FFFFFF" d="M488.9,363h-60.1v66H450v-55.4h31.8c3.5,0,7.1,2.4,7.1,7.1v49.5h21.2V383C510.1,371.3,500.7,363,488.9,363z
		"/>
	<path fill="#FFFFFF" d="M803.4,363h-60.1v66h21.2v-55.4h31.8c3.5,0,7.1,2.4,7.1,7.1v49.5h21.2V383C824.6,371.3,815.2,363,803.4,363
		z"/>
	<polygon fill="#FFFFFF" points="294.5,396 294.5,429 305.1,429 315.7,429 315.7,384.2 315.7,341.8 303.9,341.8 294.5,341.8 	"/>
	<path fill="#FFFFFF" d="M605.5,429v-49.5c0-3.5,3.5-7.1,7.1-7.1h23.6V363h-30.6c-11.8,0-20,9.4-20,20V429H605.5L605.5,429z"/>
	<path fill="#FFFFFF" d="M214.4,429H258c11.8,0,20-9.4,20-20V383c0-10.6-9.4-20-20-20h-64.8v90.7h21.2V429z M214.4,373.6h35.3
		c4.7,0,8.2,3.5,8.2,7.1v30.6c0,3.5-3.5,7.1-8.2,7.1h-35.3V373.6z"/>
	<path fill="#FFFFFF" d="M525.4,409c0,10.6,9.4,20,20,20h25.9v-10.6h-18.8c-3.5,0-5.9-2.4-5.9-5.9v-38.9h24.7V363h-24.7v-21.2h-21.2
		L525.4,409L525.4,409z"/>
	<polygon fill="#FFFFFF" points="861.2,380.7 861.2,363 850.6,363 840,363 840,392.5 840,429 861.2,429 	"/>
	<polygon fill="#FFFFFF" points="840,350.1 840,354.8 849.4,354.8 861.2,354.8 861.2,348.9 861.2,344.2 850.6,344.2 840,344.2 	"/>
	<path fill="#FFFFFF" d="M897.7,409V383c0-8.2,4.7-10.6,10.6-10.6h38.9V363h-49.5c-11.8,0-20,9.4-20,20V409c0,10.6,9.4,20,20,20
		h49.5v-10.6h-40.1C901.2,418.4,897.7,417.2,897.7,409z"/>
	<path fill="#FFFFFF" d="M1016.7,390.1h-27.1c-7.1,0-9.4-3.5-9.4-8.2c0-5.9,2.4-8.2,9.4-8.2h41.2V363h-53c-10.6,0-18.8,8.2-20,18.8
		c0,10.6,9.4,18.8,20,18.8h29.5c3.5,0,8.2,3.5,8.2,9.4s-3.5,9.4-8.2,9.4h-49.5v10.6h58.9c9.4,0,20-4.7,20-20
		C1036.7,397.2,1027.3,390.1,1016.7,390.1z"/>
	<path fill="#FFFFFF" d="M351.1,429h62.4V383c0-10.6-9.4-20-20-20h-54.2v10.6h45.9c4.7,0,7.1,1.2,7.1,4.7v5.9h-41.2
		c-11.8,0-20,10.6-20,18.8c0,4.7,0,4.7,0,5.9C331,426.6,346.3,429,351.1,429z M392.3,394.8v23.6h-34.2c-3.5,0-7.1-2.4-7.1-5.9v-10.6
		c0-3.5,3.5-7.1,7.1-7.1H392.3z"/>
</g>
</svg>
