<?xml version="1.0" encoding="utf-8"?>
<!-- Generator: Adobe Illustrator 25.2.1, SVG Export Plug-In . SVG Version: 6.00 Build 0)  -->
<svg version="1.1" id="Layer_1" xmlns="http://www.w3.org/2000/svg" xmlns:xlink="http://www.w3.org/1999/xlink" x="0px" y="0px"
	 viewBox="0 0 557.86 34.58" style="enable-background:new 0 0 557.86 34.58;" xml:space="preserve">
<style type="text/css">
	.st0{filter:url(#Adobe_OpacityMaskFilter);}
	.st1{fill:url(#SVGID_2_);}
	.st2{mask:url(#SVGID_1_);fill:url(#SVGID_3_);}
	.st3{fill:#F04924;}
	.st4{fill:#FFFFFF;}
</style>
<g>
	<defs>
		<filter id="Adobe_OpacityMaskFilter" filterUnits="userSpaceOnUse" x="-27.94" y="-0.13" width="585.8" height="37.87">
			<feColorMatrix  type="matrix" values="1 0 0 0 0  0 1 0 0 0  0 0 1 0 0  0 0 0 1 0"/>
		</filter>
	</defs>
	<mask maskUnits="userSpaceOnUse" x="-27.94" y="-0.13" width="585.8" height="37.87" id="SVGID_1_">
		<g class="st0">
			
				<linearGradient id="SVGID_2_" gradientUnits="userSpaceOnUse" x1="158.9434" y1="254.7601" x2="163.8987" y2="254.7601" gradientTransform="matrix(118.2151 0 0 -118.2151 -18817.4531 30135.0742)">
				<stop  offset="0" style="stop-color:#999999"/>
				<stop  offset="0.0644" style="stop-color:#A7A7A7"/>
				<stop  offset="0.2295" style="stop-color:#C7C7C7"/>
				<stop  offset="0.4014" style="stop-color:#E0E0E0"/>
				<stop  offset="0.581" style="stop-color:#F1F1F1"/>
				<stop  offset="0.7732" style="stop-color:#FCFCFC"/>
				<stop  offset="1" style="stop-color:#FFFFFF"/>
			</linearGradient>
			<rect x="-27.94" y="-0.13" class="st1" width="585.8" height="37.4"/>
		</g>
	</mask>
	
		<linearGradient id="SVGID_3_" gradientUnits="userSpaceOnUse" x1="158.9434" y1="254.7582" x2="163.8987" y2="254.7582" gradientTransform="matrix(118.2151 0 0 -118.2151 -18817.4531 30135.0742)">
		<stop  offset="0" style="stop-color:#4D4D4F"/>
		<stop  offset="0.0334" style="stop-color:#444445"/>
		<stop  offset="0.0758" style="stop-color:#414042"/>
	</linearGradient>
	<polygon class="st2" points="-27.94,-0.13 557.86,-0.13 557.86,37.27 -27.94,37.73 	"/>
</g>
<polyline class="st3" points="163.31,0 0,0 0,34.58 163.31,34.58 "/>
<g>
	<g>
		<g>
			<path class="st4" d="M142.43,18.68c-0.18-0.13-0.38-0.13-0.57-0.13h-1.04v2.36h0.3v-1.08h0.52l0.66,1.08h0.35l-0.7-1.08
				c0.4-0.01,0.74-0.18,0.74-0.64v-0.02C142.69,18.97,142.58,18.77,142.43,18.68z M141.73,19.59h-0.61v-0.82h0.66
				c0.29,0,0.61,0.04,0.61,0.4C142.39,19.56,142.04,19.59,141.73,19.59z"/>
			<path class="st4" d="M141.61,17.64c-1.16,0-2.1,0.93-2.1,2.09c0,1.17,0.94,2.1,2.1,2.1c1.15,0,2.1-0.93,2.1-2.1
				C143.7,18.56,142.76,17.64,141.61,17.64z M141.61,21.52c-0.99,0-1.79-0.79-1.79-1.79c0-0.99,0.8-1.79,1.79-1.79
				c1,0,1.78,0.8,1.78,1.79C143.39,20.73,142.6,21.52,141.61,21.52z"/>
		</g>
	</g>
	<path class="st4" d="M88.66,21.71h5.86c1.36,0,2.72-0.92,2.72-2.67v-3.51c0-1.75-1.38-2.67-2.73-2.67h-5.84
		c-1.35,0-2.73,0.92-2.73,2.67v3.51C85.93,20.8,87.31,21.71,88.66,21.71z M88.86,15.21c0-0.54,0.47-0.97,1.03-0.97h3.39
		c0.56,0,1.03,0.44,1.03,0.97v4.1c0,0.55-0.46,0.98-1.03,0.98h-3.39c-0.57,0-1.03-0.44-1.03-0.98V15.21z"/>
	<path class="st4" d="M65.32,12.87h-8.07v8.85h2.81v-7.47h4.28c0.5,0,0.91,0.37,0.91,0.87v6.61h2.8v-6.18
		C68.05,14.06,66.83,12.87,65.32,12.87z"/>
	<path class="st4" d="M107.25,12.87h-8.07v8.85h2.81v-7.47h4.28c0.49,0,0.91,0.37,0.91,0.87v6.61h2.8v-6.18
		C109.98,14.06,108.76,12.87,107.25,12.87z"/>
	<polygon class="st4" points="39.29,17.36 39.29,21.72 40.67,21.72 42.09,21.72 42.09,15.72 42.09,10 40.53,10 39.29,10 	"/>
	<path class="st4" d="M80.87,21.71v-6.59c0-0.49,0.41-0.88,0.92-0.88h3.07v-1.37H80.8c-1.51,0-2.73,1.19-2.73,2.66v6.18H80.87z"/>
	<path class="st4" d="M28.62,21.71l5.79,0c1.51,0,2.72-1.2,2.72-2.67v-3.5c0-1.47-1.23-2.67-2.73-2.67h-8.58l0,12.09h2.8V21.71z
		 M28.62,14.24h4.72c0.57,0,1.03,0.45,1.03,0.99v4.08c0,0.54-0.46,0.99-1.03,0.99h-4.72V14.24z"/>
	<path class="st4" d="M70.17,19.06c0,1.49,1.2,2.66,2.72,2.66h3.44v-1.42H73.8c-0.46,0-0.82-0.37-0.82-0.85v-5.21h3.36v-1.37h-3.35
		l0-2.87h-2.81V19.06z"/>
	<polygon class="st4" points="114.93,15.18 114.93,12.87 113.53,12.87 112.15,12.87 112.15,16.82 112.15,21.72 114.93,21.72 	"/>
	<polygon class="st4" points="112.15,11.22 112.15,11.74 113.4,11.74 114.93,11.74 114.93,10.95 114.93,10.39 113.53,10.39 
		112.15,10.39 	"/>
	<path class="st4" d="M119.74,18.99V15.6c0-1.17,0.63-1.36,1.38-1.36h5.15v-1.37h-6.59c-1.51,0-2.73,1.2-2.73,2.67v3.51
		c0,1.47,1.22,2.67,2.73,2.67h6.59v-1.42h-5.15C120.26,20.29,119.74,20.16,119.74,18.99z"/>
	<path class="st4" d="M135.66,16.53h-3.67c-0.99,0-1.3-0.45-1.3-1.15c0-0.75,0.38-1.14,1.3-1.14h5.57v-1.37h-7.07
		c-1.44,0-2.58,1.06-2.62,2.51c-0.04,1.43,1.18,2.51,2.62,2.51h3.89c0.54,0,1.08,0.46,1.08,1.21c0,0.73-0.53,1.19-1.08,1.2h-6.58
		v1.42h7.86c1.26-0.02,2.63-0.64,2.63-2.62C138.29,17.44,137.08,16.55,135.66,16.53z"/>
	<path class="st4" d="M46.83,21.71h8.29v-6.16c0-1.48-1.18-2.69-2.72-2.69h-7.18v1.37h6.16c0.7,0,0.92,0.18,0.93,0.71v0.83h-5.49
		c-1.6,0-2.69,1.39-2.73,2.48c-0.02,0.58,0,0.61,0,0.78C44.16,21.35,46.21,21.75,46.83,21.71z M52.31,17.17v3.12h-4.55
		c-0.53,0.01-0.91-0.37-0.91-0.85v-1.38c0-0.49,0.41-0.89,0.91-0.89H52.31z"/>
</g>
</svg>
