<?xml version="1.0" encoding="UTF-8" standalone="no"?>
<!-- Created with Inkscape (http://www.inkscape.org/) -->

<svg
   xmlns:dc="http://purl.org/dc/elements/1.1/"
   xmlns:cc="http://creativecommons.org/ns#"
   xmlns:rdf="http://www.w3.org/1999/02/22-rdf-syntax-ns#"
   xmlns:svg="http://www.w3.org/2000/svg"
   xmlns="http://www.w3.org/2000/svg"
   xmlns:sodipodi="http://sodipodi.sourceforge.net/DTD/sodipodi-0.dtd"
   xmlns:inkscape="http://www.inkscape.org/namespaces/inkscape"
   id="svg2"
   version="1.1"
   inkscape:version="0.48.0 r9654"
   width="630.43378"
   height="35.604126"
   xml:space="preserve"
   sodipodi:docname="PLT__UG_b2b_frontcover_artwork_rev2.ai"><metadata
     id="metadata8"><rdf:RDF><cc:Work
         rdf:about=""><dc:format>image/svg+xml</dc:format><dc:type
           rdf:resource="http://purl.org/dc/dcmitype/StillImage" /><dc:title></dc:title></cc:Work></rdf:RDF></metadata><defs
     id="defs6"><clipPath
       clipPathUnits="userSpaceOnUse"
       id="clipPath16"><path
         d="m 60.425,15.29 106.897,0 0,15.649 -106.897,0 0,-15.649 z"
         id="path18"
         inkscape:connector-curvature="0" /></clipPath><clipPath
       clipPathUnits="userSpaceOnUse"
       id="clipPath46"><path
         d="m 60.425,15.29 106.897,0 0,15.649 -106.897,0 0,-15.649 z"
         id="path48"
         inkscape:connector-curvature="0" /></clipPath><clipPath
       clipPathUnits="userSpaceOnUse"
       id="clipPath70"><path
         d="m 60.425,15.29 106.897,0 0,15.649 -106.897,0 0,-15.649 z"
         id="path72"
         inkscape:connector-curvature="0" /></clipPath><clipPath
       clipPathUnits="userSpaceOnUse"
       id="clipPath90"><path
         d="m 53.333,19.334 504.347,0 0,24.44 -504.347,0 0,-24.44 z"
         id="path92"
         inkscape:connector-curvature="0" /></clipPath></defs><sodipodi:namedview
     pagecolor="#ffffff"
     bordercolor="#666666"
     borderopacity="1"
     objecttolerance="10"
     gridtolerance="10"
     guidetolerance="10"
     inkscape:pageopacity="0"
     inkscape:pageshadow="2"
     inkscape:window-width="640"
     inkscape:window-height="480"
     id="namedview4"
     showgrid="false"
     fit-margin-top="0"
     fit-margin-left="0"
     fit-margin-right="0"
     fit-margin-bottom="0"
     inkscape:zoom="0.62745098"
     inkscape:cx="315.83375"
     inkscape:cy="25.88675"
     inkscape:window-x="0"
     inkscape:window-y="0"
     inkscape:window-maximized="0"
     inkscape:current-layer="g10" /><g
     id="g10"
     inkscape:groupmode="layer"
     inkscape:label="PLT__UG_b2b_frontcover_artwork_rev2"
     transform="matrix(1.25,0,0,-1.25,-66.66625,54.717375)"><g
       id="g12"><g
         id="g14"
         clip-path="url(#clipPath16)"><g
           id="g20"
           transform="translate(166.6567,20.418)"><path
             d="m 0,0 c -0.091,0.078 -0.195,0.078 -0.294,0.078 l -0.537,0 0,-1.387 0.154,0 0,0.637 0.271,0 0.346,-0.637 0.18,0 -0.365,0.637 c 0.212,0.001 0.385,0.104 0.385,0.377 l 0,0.009 C 0.14,-0.174 0.086,-0.056 0,0 m -0.36,-0.54 -0.317,0 0,0.484 0.347,0 c 0.15,0 0.313,-0.026 0.313,-0.233 0,-0.232 -0.183,-0.251 -0.343,-0.251"
             style="fill:#045e9a;fill-opacity:1;fill-rule:nonzero;stroke:none"
             id="path22"
             inkscape:connector-curvature="0" /></g><g
           id="g24"
           transform="translate(166.2324,21.0303)"><path
             d="m 0,0 c -0.603,0 -1.091,-0.547 -1.091,-1.229 0,-0.687 0.488,-1.238 1.091,-1.238 0.602,0 1.089,0.551 1.089,1.238 C 1.089,-0.547 0.602,0 0,0 m 0,-2.282 c -0.513,0 -0.927,0.464 -0.927,1.05 0,0.582 0.414,1.05 0.927,1.05 0.516,0 0.926,-0.468 0.926,-1.05 0,-0.586 -0.41,-1.05 -0.926,-1.05"
             style="fill:#045e9a;fill-opacity:1;fill-rule:nonzero;stroke:none"
             id="path26"
             inkscape:connector-curvature="0" /></g><g
           id="g28"
           transform="translate(118.4878,18.6826)"><path
             d="m 0,0 5.411,0 c 1.255,0 2.511,0.961 2.511,2.795 l 0,3.667 c 0,1.832 -1.271,2.791 -2.525,2.791 L 0,9.253 c -1.254,0 -2.525,-0.959 -2.525,-2.791 l 0,-3.667 C -2.525,0.961 -1.254,0 0,0 m 0.181,6.798 c 0,0.561 0.436,1.018 0.952,1.018 l 3.132,0 c 0.518,0 0.951,-0.457 0.951,-1.018 l 0,-4.281 C 5.216,1.945 4.79,1.484 4.265,1.484 l -3.132,0 c -0.525,0 -0.952,0.461 -0.952,1.033 l 0,4.281 z"
             style="fill:#045e9a;fill-opacity:1;fill-rule:nonzero;stroke:none"
             id="path30"
             inkscape:connector-curvature="0" /></g><g
           id="g32"
           transform="translate(96.9258,27.9336)"><path
             d="m 0,0 -7.455,0 0,-9.253 2.592,0 0,7.818 3.954,0 c 0.457,0 0.844,-0.381 0.844,-0.906 l 0,-6.912 2.587,0 0,6.47 C 2.522,-1.247 1.392,0 0,0"
             style="fill:#045e9a;fill-opacity:1;fill-rule:nonzero;stroke:none"
             id="path34"
             inkscape:connector-curvature="0" /></g><g
           id="g36"
           transform="translate(135.6611,27.9336)"><path
             d="m 0,0 -7.457,0 0,-9.253 2.594,0 0,7.818 3.954,0 c 0.456,0 0.844,-0.381 0.844,-0.906 l 0,-6.912 2.587,0 0,6.47 C 2.522,-1.247 1.392,0 0,0"
             style="fill:#045e9a;fill-opacity:1;fill-rule:nonzero;stroke:none"
             id="path38"
             inkscape:connector-curvature="0" /></g></g></g><path
       d="m 72.875,18.679 2.589,0 0,12.26 -2.589,0 0,-12.26 z"
       style="fill:#045e9a;fill-opacity:1;fill-rule:nonzero;stroke:none"
       id="path40"
       inkscape:connector-curvature="0" /><g
       id="g42"><g
         id="g44"
         clip-path="url(#clipPath46)"><g
           id="g50"
           transform="translate(111.291,18.6807)"><path
             d="M 0,0 0,6.896 C 0,7.41 0.382,7.819 0.852,7.819 l 2.832,0 0,1.436 -3.753,0 c -1.393,0 -2.525,-1.25 -2.525,-2.786 L -2.594,0 0,0 z"
             style="fill:#045e9a;fill-opacity:1;fill-rule:nonzero;stroke:none"
             id="path52"
             inkscape:connector-curvature="0" /></g><g
           id="g54"
           transform="translate(63.0156,18.6836)"><path
             d="m 0,0 5.347,-0.001 c 1.392,0 2.512,1.257 2.512,2.798 l 0,3.664 C 7.859,8 6.727,9.252 5.336,9.252 l -7.925,0 L -2.59,-3.393 0,-3.393 0,0 z m 0,7.816 4.363,0 c 0.524,0 0.952,-0.466 0.952,-1.037 l 0,-4.262 C 5.315,1.948 4.887,1.483 4.363,1.483 L 0,1.483 0,7.816 z"
             style="fill:#045e9a;fill-opacity:1;fill-rule:nonzero;stroke:none"
             id="path56"
             inkscape:connector-curvature="0" /></g><g
           id="g58"
           transform="translate(101.4067,21.4609)"><path
             d="m 0,0 c 0,-1.557 1.106,-2.781 2.511,-2.781 l 3.179,0 0,1.487 -2.341,0 c -0.426,0 -0.756,0.389 -0.756,0.887 l 0,5.446 3.097,0 0,1.436 -3.095,0 L 2.594,9.478 0,9.478 0,0 z"
             style="fill:#045e9a;fill-opacity:1;fill-rule:nonzero;stroke:none"
             id="path60"
             inkscape:connector-curvature="0" /></g></g></g><path
       d="m 142.758,27.933 -2.572,0 0,-9.253 2.572,0 0,9.253 z"
       style="fill:#045e9a;fill-opacity:1;fill-rule:nonzero;stroke:none"
       id="path62"
       inkscape:connector-curvature="0" /><path
       d="m 140.187,29.115 2.572,0 0,1.405 -2.572,0 0,-1.405 z"
       style="fill:#045e9a;fill-opacity:1;fill-rule:nonzero;stroke:none"
       id="path64"
       inkscape:connector-curvature="0" /><g
       id="g66"><g
         id="g68"
         clip-path="url(#clipPath70)"><g
           id="g74"
           transform="translate(147.2041,21.5342)"><path
             d="m 0,0 0,3.549 c 0,1.219 0.58,1.417 1.275,1.417 l 4.756,0 0,1.433 -6.089,0 c -1.39,0 -2.522,-1.25 -2.522,-2.789 l 0,-3.671 c 0,-1.541 1.132,-2.792 2.522,-2.792 l 6.089,0 0,1.486 -4.756,0 C 0.475,-1.367 0,-1.22 0,0"
             style="fill:#045e9a;fill-opacity:1;fill-rule:nonzero;stroke:none"
             id="path76"
             inkscape:connector-curvature="0" /></g><g
           id="g78"
           transform="translate(161.9116,24.1094)"><path
             d="m 0,0 -3.396,0 c -0.917,0.003 -1.198,0.472 -1.198,1.198 0,0.787 0.353,1.195 1.198,1.193 l 5.147,0 0,1.433 -6.53,0 c -1.336,0 -2.388,-1.103 -2.429,-2.626 -0.04,-1.499 1.093,-2.621 2.429,-2.621 l 3.592,0 c 0.499,-0.002 0.999,-0.485 0.994,-1.259 -0.004,-0.768 -0.495,-1.244 -0.994,-1.26 l -6.08,0 0,-1.487 7.263,0 c 1.164,0.03 2.432,0.671 2.432,2.747 C 2.428,-0.951 1.312,-0.024 0,0"
             style="fill:#045e9a;fill-opacity:1;fill-rule:nonzero;stroke:none"
             id="path80"
             inkscape:connector-curvature="0" /></g><g
           id="g82"
           transform="translate(79.8413,18.6826)"><path
             d="m 0,0 7.657,0 0,6.444 c 0,1.548 -1.092,2.809 -2.511,2.809 l -6.631,0 0,-1.437 5.694,0 c 0.644,0 0.856,-0.191 0.857,-0.74 l 0,-0.871 -5.07,0 c -1.481,0 -2.49,-1.454 -2.521,-2.589 -0.016,-0.61 -0.004,-0.641 0,-0.816 C -2.468,0.382 -0.573,-0.032 0,0 m 5.065,4.751 0,-3.267 -4.209,0 C 0.368,1.476 0.014,1.867 0.014,2.371 l 0,1.444 c 0,0.516 0.378,0.936 0.842,0.936 l 4.209,0 z"
             style="fill:#045e9a;fill-opacity:1;fill-rule:nonzero;stroke:none"
             id="path84"
             inkscape:connector-curvature="0" /></g></g></g><g
       id="g86"><g
         id="g88"
         clip-path="url(#clipPath90)"><g
           id="g94"
           transform="translate(53.333,43.7739)"><path
             d="m 0,0 c 1.598,-1.251 3.536,-2.1 5.661,-2.279 l 85.875,0 c 57.369,0 44.027,-22.161 104.004,-22.161 l 305.085,0 c 1.98,0.221 3.375,0.672 3.375,2.289 l 0.348,0 -9.859,-0.012 -289.957,0 c -59.978,0 -46.634,22.16 -104.005,22.16 C 55.876,-0.003 0,0 0,0"
             style="fill:#045e9a;fill-opacity:1;fill-rule:nonzero;stroke:none"
             id="path96"
             inkscape:connector-curvature="0" /></g></g></g></g></svg>