<?xml version="1.0" encoding="UTF-8" standalone="no"?>
<!-- Created with Inkscape (http://www.inkscape.org/) -->

<svg
   xmlns:dc="http://purl.org/dc/elements/1.1/"
   xmlns:cc="http://creativecommons.org/ns#"
   xmlns:rdf="http://www.w3.org/1999/02/22-rdf-syntax-ns#"
   xmlns:svg="http://www.w3.org/2000/svg"
   xmlns="http://www.w3.org/2000/svg"
   version="1.1"
   width="94.21875"
   height="14.0625"
   id="svg3081"
   xml:space="preserve"><metadata
     id="metadata3087"><rdf:RDF><cc:Work
         rdf:about=""><dc:format>image/svg+xml</dc:format><dc:type
           rdf:resource="http://purl.org/dc/dcmitype/StillImage" /><dc:title></dc:title></cc:Work></rdf:RDF></metadata><defs
     id="defs3085"><clipPath
       id="clipPath3095"><path
         d="m 0,11.25 75.375,0 L 75.375,0 0,0 0,11.25 z"
         id="path3097" /></clipPath></defs><g
     transform="matrix(1.25,0,0,-1.25,0,14.0625)"
     id="g3089"><g
       id="g3091"><g
         clip-path="url(#clipPath3095)"
         id="g3093"><g
           transform="translate(73.3076,3.8916)"
           id="g3099"><path
             d="m 0,0 -0.272,0 0,0.367 0.296,0 C 0.155,0.367 0.295,0.346 0.295,0.189 0.295,0.013 0.138,0 0,0 m 0.308,0.407 c -0.076,0.06 -0.167,0.06 -0.25,0.06 l -0.461,0 0,-1.053 0.131,0 0,0.484 0.233,0 0.297,-0.484 0.154,0 -0.312,0.484 c 0.18,10e-4 0.329,0.081 0.329,0.287 l 0,0.006 c 0,0.085 -0.049,0.176 -0.121,0.216"
             id="path3101"
             style="fill:#045e9a;fill-opacity:1;fill-rule:nonzero;stroke:none" /></g><g
           transform="translate(73.252,3.0313)"
           id="g3103"><path
             d="M 0,0 C -0.439,0 -0.798,0.353 -0.798,0.796 -0.798,1.24 -0.439,1.594 0,1.594 0.443,1.594 0.796,1.24 0.796,0.796 0.796,0.353 0.443,0 0,0 m 0,1.732 c -0.519,0 -0.936,-0.415 -0.936,-0.933 0,-0.521 0.417,-0.939 0.936,-0.939 0.517,0 0.936,0.418 0.936,0.939 0,0.518 -0.419,0.933 -0.936,0.933"
             id="path3105"
             style="fill:#045e9a;fill-opacity:1;fill-rule:nonzero;stroke:none" /></g><g
           transform="translate(41.0566,7.0059)"
           id="g3107"><path
             d="m 0,0 c 0,0.333 0.294,0.605 0.64,0.605 l 2.107,0 C 3.097,0.605 3.388,0.333 3.388,0 l 0,-2.543 c 0,-0.341 -0.286,-0.614 -0.641,-0.614 l -2.107,0 C 0.287,-3.157 0,-2.884 0,-2.543 L 0,0 z m -0.124,-4.039 3.642,0 c 0.843,0 1.69,0.569 1.69,1.661 l 0,2.178 c 0,1.09 -0.855,1.659 -1.7,1.659 l -3.632,0 c -0.843,0 -1.697,-0.569 -1.697,-1.659 l 0,-2.178 c 0,-1.092 0.854,-1.661 1.697,-1.661"
             id="path3109"
             style="fill:#045e9a;fill-opacity:1;fill-rule:nonzero;stroke:none" /></g><g
           transform="translate(26.4292,8.4644)"
           id="g3111"><path
             d="m 0,0 -5.015,0 0,-5.498 1.744,0 0,4.645 2.66,0 c 0.307,0 0.567,-0.226 0.567,-0.538 l 0,-4.107 1.74,0 0,3.842 C 1.696,-0.742 0.937,0 0,0"
             id="path3113"
             style="fill:#045e9a;fill-opacity:1;fill-rule:nonzero;stroke:none" /></g><g
           transform="translate(52.4863,8.4644)"
           id="g3115"><path
             d="m 0,0 -5.018,0 0,-5.498 1.747,0 0,4.645 2.66,0 c 0.305,0 0.566,-0.226 0.566,-0.538 l 0,-4.107 1.742,0 0,3.842 C 1.697,-0.742 0.936,0 0,0"
             id="path3117"
             style="fill:#045e9a;fill-opacity:1;fill-rule:nonzero;stroke:none" /></g><g
           transform="translate(10.2495,8.27)"
           id="g3119"><path
             d="m 0,0 0,-5.304 0.813,0 0.929,0 0,4.555 0,2.729 -0.979,0 L 0,1.98 0,0 z"
             id="path3121"
             style="fill:#045e9a;fill-opacity:1;fill-rule:nonzero;stroke:none" /></g><g
           transform="translate(36.0928,2.9668)"
           id="g3123"><path
             d="m 0,0 0,4.097 c 0,0.305 0.257,0.548 0.573,0.548 l 1.905,0 0,0.854 -2.524,0 c -0.937,0 -1.698,-0.744 -1.698,-1.657 L -1.744,0 0,0 z"
             id="path3125"
             style="fill:#045e9a;fill-opacity:1;fill-rule:nonzero;stroke:none" /></g><g
           transform="translate(3.6177,7.6113)"
           id="g3127"><path
             d="m 0,0 2.935,0 c 0.353,0 0.64,-0.276 0.64,-0.616 l 0,-2.533 c 0,-0.339 -0.287,-0.614 -0.64,-0.614 L 0,-3.763 0,0 z m 0,-4.644 3.596,-10e-4 c 0.936,0 1.691,0.747 1.691,1.662 l 0,2.177 c 0,0.916 -0.762,1.66 -1.698,1.66 l -5.331,0 -0.001,-7.516 1.743,0 0,2.018 z"
             id="path3129"
             style="fill:#045e9a;fill-opacity:1;fill-rule:nonzero;stroke:none" /></g><g
           transform="translate(29.4438,4.6177)"
           id="g3131"><path
             d="m 0,0 c 0,-0.924 0.744,-1.652 1.689,-1.652 l 2.138,0 0,0.883 -1.575,0 c -0.286,0 -0.508,0.231 -0.508,0.527 l 0,3.236 2.083,0 0,0.854 -2.081,0 L 1.745,5.632 0,5.632 0,0 z"
             id="path3133"
             style="fill:#045e9a;fill-opacity:1;fill-rule:nonzero;stroke:none" /></g><g
           transform="translate(57.2607,6.7715)"
           id="g3135"><path
             d="m 0,0 0,1.692 -0.813,0 -0.916,0 0,-2.091 0,-3.407 0.568,0 1.161,0 L 0,0 z"
             id="path3137"
             style="fill:#045e9a;fill-opacity:1;fill-rule:nonzero;stroke:none" /></g><g
           transform="translate(55.5313,9.5679)"
           id="g3139"><path
             d="m 0,0 0,-0.402 0.717,0 1.012,0 0,0.352 0,0.484 -0.911,0 L 0,0.434 0,0 z"
             id="path3141"
             style="fill:#045e9a;fill-opacity:1;fill-rule:nonzero;stroke:none" /></g><g
           transform="translate(60.251,4.6611)"
           id="g3143"><path
             d="M 0,0 0,2.108 C 0,2.833 0.392,2.95 0.859,2.95 l 3.199,0 0,0.853 -4.096,0 c -0.937,0 -1.696,-0.743 -1.696,-1.658 l 0,-2.182 c 0,-0.916 0.759,-1.657 1.696,-1.657 l 4.096,0 0,0.881 -3.199,0 C 0.32,-0.813 0,-0.725 0,0"
             id="path3145"
             style="fill:#045e9a;fill-opacity:1;fill-rule:nonzero;stroke:none" /></g><g
           transform="translate(70.1465,6.1919)"
           id="g3147"><path
             d="m 0,0 -2.285,0 c -0.617,0.002 -0.805,0.28 -0.805,0.711 0,0.468 0.236,0.71 0.805,0.708 l 3.461,0 0,0.853 -4.393,0 c -0.897,0 -1.603,-0.657 -1.634,-1.561 -0.026,-0.89 0.737,-1.557 1.634,-1.557 l 2.417,0 c 0.336,-0.001 0.673,-0.288 0.669,-0.749 C -0.133,-2.05 -0.464,-2.334 -0.8,-2.343 l -4.09,0 0,-0.882 4.886,0 c 0.783,0.016 1.637,0.395 1.637,1.63 C 1.633,-0.565 0.881,-0.016 0,0"
             id="path3149"
             style="fill:#045e9a;fill-opacity:1;fill-rule:nonzero;stroke:none" /></g><g
           transform="translate(18.3438,5.7891)"
           id="g3151"><path
             d="m 0,0 0,-1.94 -2.831,0 c -0.329,-0.005 -0.567,0.228 -0.567,0.526 l 0,0.859 C -3.398,-0.249 -3.144,0 -2.831,0 L 0,0 z m -3.408,-2.822 5.152,0 0,3.829 c 0,0.92 -0.735,1.669 -1.691,1.669 l -4.46,0 0,-0.854 3.831,0 C -0.143,1.822 0,1.708 0,1.382 l 0,-0.517 -3.41,0 c -0.997,0 -1.674,-0.865 -1.695,-1.539 -0.012,-0.364 -0.003,-0.382 0,-0.485 0.036,-1.437 1.312,-1.681 1.697,-1.663"
             id="path3153"
             style="fill:#045e9a;fill-opacity:1;fill-rule:nonzero;stroke:none" /></g></g></g></g></svg>